# xmcd
#
# Track frame offsets:
# 150
# 14170
# 32776
# 44999
# 57305
# 73162
# 85761
# 102116
# 115129
# 130263
# 142594
# 156041
# 169494
# 175810
# 185674
# 205146
# 215247
# 227004
# 232550
# 248491
# 256986
# 265831
#
# Disc length: 3679 seconds
#
# Revision: 0
# Processed by: cddbd v1.5.2PL0 Copyright (c) Steve Scherf et al.
# Submitted via: Audion 3.0.2 (http://www.panic.com/audion/)
#
DISCID=3a0e5d16
DTITLE=Boris Vian - Best of
DYEAR=1900
DGENRE=
TTITLE0=Le Petit Commerce
TTITLE1=Arthur
TTITLE2=La Rue Watt
TTITLE3=La Java des Bombes Atomiques
TTITLE4=Blues Du Dentiste
TTITLE5=Complainte Du progres
TTITLE6=Derouillade Blues
TTITLE7=Je Suis Snob
TTITLE8=On N'est pas la pour se faire Engueler
TTITLE9=Va te faire cuire un Oeuf 
TTITLE10=Chansons Paillardes
TTITLE11=La Java des Chaussettes
TTITLE12=A Si J'avais un Franc
TTITLE13=Les Joyeux Bouchers
TTITLE14=Le Tango Des matelots
TTITLE15=Glace Vanille et Citron
TTITLE16=La Peinture a l'Huile
TTITLE17=Marcelle
TTITLE18=Meli-Melodie
TTITLE19=Ta Katie t'a Quittée
TTITLE20=Comprend qui Peut
TTITLE21=Aragon and castille
EXTD=
EXTT0=
EXTT1=
EXTT2=
EXTT3=
EXTT4=
EXTT5=
EXTT6=
EXTT7=
EXTT8=
EXTT9=
EXTT10=
EXTT11=
EXTT12=
EXTT13=
EXTT14=
EXTT15=
EXTT16=
EXTT17=
EXTT18=
EXTT19=
EXTT20=
EXTT21=
PLAYORDER=
